/* XPM */
static char *f333a363f35549dcac6ea72d17a45c2esApnFC8mfYIPvpsJ[] = {
/* columns rows colors chars-per-pixel */
"32 32 130 2 ",
"   c #3D3736",
".  c #5F4B24",
"X  c #59492E",
"o  c #695328",
"O  c #755B25",
"+  c #795D22",
"@  c #755E2E",
"#  c #625132",
"$  c #685737",
"%  c #776239",
"&  c #2B3850",
"*  c #283D5F",
"=  c #1C3A66",
"-  c #263F64",
";  c #1D4377",
":  c #25436E",
">  c #344664",
",  c #3A4962",
"<  c #244574",
"1  c #284570",
"2  c #284978",
"3  c #4A4443",
"4  c #554C43",
"5  c #534C4B",
"6  c #5A5046",
"7  c #57504D",
"8  c #595352",
"9  c #56555A",
"0  c #625644",
"q  c #675C4E",
"w  c #695F51",
"e  c #655F5D",
"r  c #67615F",
"t  c #68615D",
"y  c #796E5C",
"u  c #464F60",
"i  c #4E5768",
"p  c #4F596C",
"a  c #545A66",
"s  c #595E6B",
"d  c #5A6271",
"f  c #676160",
"g  c #6B6564",
"h  c #6E6967",
"j  c #6E6A6A",
"k  c #736C66",
"l  c #726D6C",
"z  c #78716C",
"x  c #656974",
"c  c #767170",
"v  c #7A7573",
"b  c #767578",
"n  c #856A2F",
"m  c #8A6C2B",
"M  c #8E702C",
"N  c #93742B",
"B  c #8C723B",
"V  c #947C46",
"C  c #827253",
"Z  c #927D50",
"A  c #827D7B",
"S  c #AA8735",
"D  c #AF8B33",
"F  c #AB8A3A",
"G  c #B18C31",
"H  c #C49B35",
"J  c #CA9F35",
"K  c #CAA036",
"L  c #CDA238",
"P  c #DCAF3B",
"I  c #E7B83F",
"U  c #EEBD3D",
"Y  c #AC9050",
"T  c #908267",
"R  c #9F8D67",
"E  c #86807F",
"W  c #8F867A",
"Q  c #F2C042",
"!  c #215295",
"~  c #22569D",
"^  c #295898",
"/  c #3F608E",
"(  c #235BA6",
")  c #2E63AA",
"_  c #758193",
"`  c #868280",
"'  c #8A8584",
"]  c #8E8A8A",
"[  c #928D8C",
"{  c #969393",
"}  c #999594",
"|  c #979698",
" . c #9E9A99",
".. c #A29A8D",
"X. c #A29E9E",
"o. c #A5A2A1",
"O. c #A8A5A4",
"+. c #ABA8A7",
"@. c #ADA9A9",
"#. c #B4AEA7",
"$. c #B1ADAC",
"%. c #A8AFBB",
"&. c #B5B3B2",
"*. c #B8B5B4",
"=. c #BAB7B8",
"-. c #BDBBBB",
";. c #C1BEBE",
":. c #C4C1BE",
">. c #A3B6D0",
",. c #B0C4DD",
"<. c #C4C2C2",
"1. c #C9C7C6",
"2. c #CECCCC",
"3. c #D1CFCF",
"4. c #D4D2D2",
"5. c #D9D6D4",
"6. c #D9D8D7",
"7. c #DDDBDB",
"8. c #E0DFDE",
"9. c #E2E0DE",
"0. c #E0DFE0",
"q. c #E3E2E2",
"w. c #EBE9E6",
"e. c #EDECEC",
"r. c #F0EFEF",
"t. c #F1F0EF",
"y. c #F4F4F4",
"u. c #F8F7F6",
"i. c #F8F8F7",
"p. c #FFFFFF",
/* pixels */
"p.p.p.p.p.p.p.p.p.p.p.p.p.p.p.p.p.p.p.p.p.p.p.p.p.p.p.p.p.p.p.p.",
"p.p.p.p.p.p.p.p.p.p.p.p.p.p.p.p.p.p.p.p.p.p.p.p.p.p.p.p.p.p.p.p.",
"p.p.p.p.p.p.p.p.p.p.p.p.p.p.p.p.p.p.p.p.p.p.p.p.p.p.p.p.p.p.p.p.",
"p.p.p.p.p.p.p.p.p.p.p.p.p.p.p.p.p.p.i.u.p.p.e.y.p.p.p.p.p.p.p.p.",
"p.p.p.p.p.p.p.p.p.p.p.p.p.p.p.i.1.' l j v E 8 l 9.p.p.p.p.p.p.p.",
"p.p.p.p.p.p.p.p.p.p.p.p.p.p.e.E f o.2.5.*.3 g ] 8 o.i.p.p.p.p.p.",
"p.p.p.p.p.p.p.p.p.p.p.p.p.i.A E t.p.p.p.p.+.@.e.@.5 2.p.p.p.p.p.",
"p.p.p.p.p.p.p.p.p.p.p.p.p.=.g y.p.p.p.p.p.7.;.p.u.A r 6.p.p.p.p.",
"p.p.p.p.p.p.p.p.p.p.p.p.p.v &.p.p.p.p.p.p.p.i.p.p.<.5 | p.p.p.p.",
"p.p.p.p.p.p.p.p.p.p.u.7.q.v ;.:.p.p.p.p.p.p.p.p.p.1.X 4.p.p.p.p.",
"p.p.p.p.p.p.p.p.p.p.O.B Z C +.4.p.p.p.p.p.p.p.p.p.i.j 3.p.p.p.p.",
"p.p.p.p.p.p.p.p.p.p...H U P V #.p.p.p.p.p.p.p.p.p.u.h 3.p.p.p.p.",
"p.p.p.p.p.p.p.p.p.p.7.T B S G R y.p.p.p.p.p.p.p.p.4.r e.p.p.p.p.",
"p.p.p.p.p.p.p.p.p.p.p.u.] { :.w.p.p.p.p.p.p.p.p.w.j o.p.p.p.p.p.",
"p.p.p.p.p.p.p.p.p.p.u.O.9 b -.-.>.6.1.+.&.e.p.e.g [ i.p.p.p.p.p.",
"p.p.p.p.p.p.p.p.p.y.E l %./ : 1 > 3 [ *.X.E y.-.r u.p.p.p.p.p.p.",
"p.p.p.p.p.p.p.p.p.] a >.,.) ( ( > #.p.p.p.` 9 8 &.p.p.p.p.p.p.p.",
"p.p.p.p.p.y.[ E 8.e & ^ ) ( ( ~ u 8.u.t.5._ = j i.p.p.p.p.p.p.p.",
"p.p.p.p.p.*.o O } l ' a 2 ^ ( ( 2 i d p > < *   | p.p.p.p.p.p.p.",
"p.p.p.p.p.X.N G v l 2.e.X.s > < ! ; - - , x ] ` f i.p.p.p.p.p.p.",
"p.p.p.p.p.o.M L y 7 o.p.p.y.3.@.[ { o.-.7.i.p.*.8 e.p.p.p.p.p.p.",
"p.p.p.p.p.-.@ I D N 6 7.p.p.p.p.p.p.p.p.p.p.i. .l u.p.p.p.p.p.p.",
"p.p.p.p.p.0.$ P Q Y t f &.y.p.p.p.p.p.p.p.q.A  .w.p.p.p.p.p.p.p.",
"p.p.p.p.p.i.z S H W i.<.v @.@.<.9.e.w.4. .e { i.p.p.p.p.p.p.p.p.",
"p.p.p.p.p.p.<.# + ' p.p.i.y.O.c g f 4 X 4 v k ;.p.p.p.p.p.p.p.p.",
"p.p.p.p.p.p.p.$.v 7.p.p.p.p.p.i.e.2.w D F n + A p.p.p.p.p.p.p.p.",
"p.p.p.p.p.p.p.p.p.p.p.p.p.p.p.y.} w % P Q H # ;.p.p.p.p.p.p.p.p.",
"p.p.p.p.p.p.p.p.p.p.p.p.p.p.p.&.. K P J m 0 &.p.p.p.p.p.p.p.p.p.",
"p.p.p.p.p.p.p.p.p.p.p.p.p.p.p.4.0 @ $ q { q.p.p.p.p.p.p.p.p.p.p.",
"p.p.p.p.p.p.p.p.p.p.p.p.p.p.p.p.q.1.4.r.p.p.p.p.p.p.p.p.p.p.p.p.",
"p.p.p.p.p.p.p.p.p.p.p.p.p.p.p.p.p.p.p.p.p.p.p.p.p.p.p.p.p.p.p.p.",
"p.p.p.p.p.p.p.p.p.p.p.p.p.p.p.p.p.p.p.p.p.p.p.p.p.p.p.p.p.p.p.p."
};
