/* XPM */
static char *ce150e9d3a52456b808352b9b9bcc2feKobBxDq56EyoCpit[] = {
/* columns rows colors chars-per-pixel */
"32 32 158 2 ",
"   c #232C37",
".  c #292E34",
"X  c #292E39",
"o  c #2A3236",
"O  c #273038",
"+  c #2C333A",
"@  c #32363C",
"#  c #353A3B",
"$  c #3D3E3E",
"%  c #42393E",
"&  c #4C3E3E",
"*  c #3E403E",
"=  c #41413F",
"-  c #2E3846",
";  c #313741",
":  c #343A42",
">  c #3B3D42",
",  c #383E4D",
"<  c #583F41",
"1  c #3E4145",
"2  c #3C414B",
"3  c #3D4452",
"4  c #404242",
"5  c #474348",
"6  c #44494D",
"7  c #4A4F4F",
"8  c #524144",
"9  c #594342",
"0  c #464C53",
"q  c #434956",
"w  c #4A4F59",
"e  c #4C525B",
"r  c #515756",
"t  c #5D5257",
"y  c #634443",
"u  c #6F4B47",
"i  c #734C49",
"p  c #6D565B",
"a  c #7F5F5C",
"s  c #515660",
"d  c #555A64",
"f  c #5F656C",
"g  c #64656C",
"h  c #676D75",
"j  c #686D74",
"k  c #6A7178",
"l  c #71777D",
"z  c #94672E",
"x  c #9D6C2E",
"c  c #896134",
"v  c #A2702F",
"b  c #A26E31",
"n  c #AA793F",
"m  c #B07733",
"M  c #814F48",
"N  c #84534B",
"B  c #8E564D",
"V  c #94574F",
"C  c #876E49",
"Z  c #9B7243",
"A  c #97784E",
"S  c #99645D",
"D  c #98695F",
"F  c #947853",
"G  c #A77D4A",
"H  c #A86155",
"J  c #BB6855",
"K  c #8D6A67",
"L  c #936964",
"P  c #9A6F68",
"I  c #8C7C69",
"U  c #9A726D",
"Y  c #8C7571",
"T  c #967B78",
"R  c #C66F5C",
"E  c #CE715C",
"W  c #D1745F",
"Q  c #C68436",
"!  c #CA8635",
"~  c #CE8A36",
"^  c #CF8C38",
"/  c #D99037",
"(  c #DC9438",
")  c #E6983A",
"_  c #A58154",
"`  c #A2855D",
"'  c #9D8865",
"]  c #99856A",
"[  c #848077",
"{  c #8F8575",
"}  c #888378",
"|  c #A18D74",
" . c #A29079",
".. c #757A81",
"X. c #797E84",
"o. c #7D8287",
"O. c #888688",
"+. c #85898E",
"@. c #90878A",
"#. c #998B8B",
"$. c #99938C",
"%. c #878D94",
"&. c #8A8F94",
"*. c #8E9397",
"=. c #8E9499",
"-. c #93969B",
";. c #A58A84",
":. c #A29887",
">. c #A39493",
",. c #A99F9F",
"<. c #ABA297",
"1. c #B6AD9B",
"2. c #9A9FA2",
"3. c #9AA1A4",
"4. c #ADA8A7",
"5. c #A4A7A9",
"6. c #ABA7A8",
"7. c #A5AAAD",
"8. c #A9ADAE",
"9. c #B3B0A7",
"0. c #BAB5AD",
"q. c #A9AEB1",
"w. c #ADB2B4",
"e. c #AFB4B8",
"r. c #B1B5B7",
"t. c #BEBAB6",
"y. c #B2B6B9",
"u. c #B5BABC",
"i. c #B9BDBE",
"p. c #C5C2BE",
"a. c #C8C6BF",
"s. c #BBBFC0",
"d. c #BDC2C3",
"f. c #C1C4C5",
"g. c #C4C7C8",
"h. c #C5C9CB",
"j. c #CACDCC",
"k. c #D1CFCC",
"l. c #CBD0CF",
"z. c #CBCED0",
"x. c #CED2D1",
"c. c #D3D5D4",
"v. c #D6D8D9",
"b. c #DADDDD",
"n. c #DDE0DF",
"m. c #DDDFE0",
"M. c #DEE1E1",
"N. c #E2E4E4",
"B. c #E6E9E7",
"V. c #E6E7E9",
"C. c #E7E9E9",
"Z. c #EAECEC",
"A. c #EEF0EF",
"S. c #EFF1F1",
"D. c #F3F4F4",
"F. c #F6F8F6",
"G. c #F7F8F8",
"H. c #FEFEFE",
/* pixels */
"H.H.H.H.H.H.H.H.H.H.H.H.H.H.H.H.H.H.H.H.H.H.H.H.H.H.H.H.H.H.H.H.",
"H.H.H.H.H.H.H.H.H.H.H.H.H.H.H.H.H.H.H.H.H.H.H.H.H.G.A.C.S.H.H.H.",
"H.H.H.H.H.G.H.H.H.H.H.H.H.H.H.H.H.H.H.H.H.H.H.H.c.q.q.y.q.w.M.H.",
"j.,.c.j.w.q.q.d.A.H.H.H.H.H.H.H.H.H.H.H.H.H.G.s.u.Z.H.H.H.N.q.h.",
"p < t r.Z.D.D.x.7.M.H.H.H.H.H.H.H.H.H.H.H.H.h.i.H.H.G.D.G.G.D.r.",
"> X % 4.H.H.H.H.C.w.S.H.H.H.H.H.H.H.H.H.H.b.7.B.H.H.G.V.r.m.H.G.",
"-   > 4.H.D.G.H.H.j.d.H.H.H.H.H.H.H.H.H.V.8.C.G.t. . .O.h.H.H.H.",
"+ : w.Z.h.N.Z.Z.Z.Z.w.f.H.H.H.H.H.H.H.H.i.b.H.0.n ^ ! | G.H.H.H.",
"& < h.H.l.} ` _ ' k.H.u.b.H.H.H.H.H.H.F.0.F.0.G / ( ! 1.H.H.H.H.",
"K #.Z.H.H.:./ ) / ` c.N.i.H.H.H.H.H.H.Z.i.D.I Q ! ! m <.H.H.H.H.",
"Z.G.H.H.H.1.^ ) ) ~ ] Z.u.H.H.H.H.H.H.S.u.G.k.{ c b x I D.H.H.H.",
"H.H.H.H.H.:.z v x C a.A.u.G.H.H.H.H.H.H.y.Z.H.p.Z G ' $.e.D.H.H.",
"H.H.H.H.B.[ F A F 9.H.n.d.H.H.H.H.H.H.H.c.u.G.G.k.N.D.H.x.M.H.Z.",
"j.H.H.M.7.b.Z.V.Z.H.F.w.N.H.H.H.H.H.H.H.H.g.q.g.C.H.H.H.H.H.h.5.",
"5.v.H.N.Z.H.H.H.H.c.q.j.H.H.H.H.H.H.H.H.H.H.Z.z.7.A.H.H.H.M.r.G.",
"Z.r.w.v.H.H.H.H.n.7.B.H.H.H.H.H.H.H.H.H.H.H.H.H.x.h.H.H.H.j.c.H.",
"H.H.N.w.B.H.H.H.d.N.H.H.H.H.H.H.H.H.H.H.H.H.H.H.j.d q.N.q.h c.H.",
"H.H.H.x.c.H.H.H.u.S.H.H.H.H.H.H.H.H.H.H.H.H.H.H.&.@ ; 3 + # r.H.",
"H.H.H.l.c.H.H.H.u.Z.H.H.H.H.H.H.H.H.H.H.H.H.H.H.l # + , : @ %.H.",
"H.H.H.i.B.H.H.H.f.M.H.H.H.H.H.H.H.H.H.H.H.H.H.m.0 @ k h l e 2 i.",
"H.H.Z.r.F.H.H.H.b.d.H.H.H.H.H.H.H.H.H.H.H.H.G.%.@ q y.y.h.7.X X.",
"H.H.f.c.S.Z.H.D.C.3.x.H.H.H.G.Z.D.H.H.H.S.h...: X > w.N.k.y.@ q ",
"H.Z.y.H.N.2.>.T U a g w.j.d.w.w.q.C.Z.q.f 4 > $ @ > 3.V.c.y.: X ",
"H.5.w.Z.A.Y J E E E P i.h.c.A.H.c.=.*.s # * = # @ : %.w.r.i.> X ",
"y.S H $.G.;.R B = V i 7 i.H.G.v.e.h.e.h $ $ $ $ @ @ o.*.5.d.; @ ",
"5 = i $.H.$.N > * + o @ j v.w.%.g.G.s.X.# $ $ $ > @ ..N.x.d.> $ ",
"= * # 7.H.&.+ = * O O + 6 7.B.n.q.h.2.k + + @ $ % # ..V.l.f.1 1 ",
"% = * y.H.=.o 4 * o   @ 7 N.H.H.Z.z.d.f + < $ 4 = $ o.Z.l.f.1 * ",
"= 8 @ w.H.-.o * = # + # r Z.H.H.H.H.z.6 * $ 4 * $ > +.-.w.s.1 * ",
"E H y 6.H.+.. * = o + o O.G.H.H.H.H.%.@ * * % * * 1 -.i.s.y.* % ",
"W H M @.D.T y $ # + @ 8 s.H.H.H.G.u.w + $ * % 1 % 1 %.z.f.5.# * ",
"E J B L 8.D V N 9 @ + u t.H.H.H.z.6 # $ + + * * = @ : , d d $ = "
};
