/* XPM */
static char *_188b049739b4b418ec437b04fc7b255LUDHh01WgCjCQqie[] = {
/* columns rows colors chars-per-pixel */
"32 32 140 2 ",
"   c #211F1C",
".  c #3E1212",
"X  c #372C1C",
"o  c #2E2323",
"O  c #282929",
"+  c #3F372A",
"@  c #383333",
"#  c #460E0D",
"$  c #4D100F",
"%  c #7D1B19",
"&  c #5D2F30",
"*  c #563737",
"=  c #5A393A",
"-  c #584728",
";  c #584B35",
":  c #7B5D27",
">  c #745A28",
",  c #6B5631",
"<  c #7D612A",
"1  c #414141",
"2  c #474848",
"3  c #484949",
"4  c #554E41",
"5  c #5C5240",
"6  c #5E5548",
"7  c #545454",
"8  c #5D5B55",
"9  c #5A5959",
"0  c #754645",
"q  c #7C4949",
"w  c #655B4B",
"e  c #625B51",
"r  c #736243",
"t  c #786849",
"y  c #676158",
"u  c #5F6060",
"i  c #636363",
"p  c #6C6963",
"a  c #6B6B6B",
"s  c #766060",
"d  c #736F68",
"f  c #727273",
"g  c #7D7D7D",
"h  c #9E211E",
"j  c #A7201D",
"k  c #812A28",
"l  c #9F2724",
"z  c #853E3D",
"x  c #9B3533",
"c  c #AC2622",
"v  c #AB2D29",
"b  c #BD2723",
"n  c #B62A25",
"m  c #BD2925",
"M  c #C22A25",
"N  c #CC2A25",
"B  c #D42C27",
"V  c #D02D29",
"C  c #C33430",
"Z  c #E22F29",
"A  c #E6322C",
"S  c #E9332C",
"D  c #8E6A26",
"F  c #826329",
"G  c #8F6D29",
"H  c #906B23",
"J  c #967025",
"K  c #9A7329",
"L  c #9A783B",
"P  c #8F7444",
"I  c #91605F",
"U  c #8C6463",
"Y  c #867979",
"T  c #977978",
"R  c #AE716F",
"E  c #AD822E",
"W  c #B2862F",
"Q  c #BD8D30",
"!  c #B78D3B",
"~  c #BD9039",
"^  c #C29233",
"/  c #C09239",
"(  c #D29D38",
")  c #DDA438",
"_  c #E1A639",
"`  c #E4AB3B",
"'  c #E9AD3B",
"]  c #F3B43E",
"[  c #9D875B",
"{  c #A18346",
"}  c #AB8B4B",
"|  c #9C8D71",
" . c #9B917D",
".. c #A4926D",
"X. c #AF996F",
"o. c #F6B740",
"O. c #F9B941",
"+. c #828383",
"@. c #87898A",
"#. c #8C8C8C",
"$. c #8E8E91",
"%. c #929394",
"&. c #999796",
"*. c #9A9B9A",
"=. c #A48D8D",
"-. c #AC9F86",
";. c #A49493",
":. c #A79A9B",
">. c #A99B9B",
",. c #B2AB9D",
"<. c #A4A4A4",
"1. c #ADA3A2",
"2. c #AAAAAB",
"3. c #B3A1A2",
"4. c #BCB7AB",
"5. c #B3B4B4",
"6. c #BEBBB5",
"7. c #B4B5B8",
"8. c #BAB7B8",
"9. c #BBBBBB",
"0. c #C3BDBD",
"q. c #CFBEBD",
"w. c #D6C8A5",
"e. c #C3C1B8",
"r. c #D4CDBB",
"t. c #C5C5C5",
"y. c #C8C8C4",
"u. c #CCCCCC",
"i. c #D2D3D3",
"p. c #D8D7D7",
"a. c #D8D9D7",
"s. c #D5D7D8",
"d. c #DBDBDB",
"f. c #E4E1D3",
"g. c #DBDEE0",
"h. c #E2E3E3",
"j. c #EBEBEB",
"k. c #F4F4F4",
"l. c #FDFDFD",
"z. c #FFFFFF",
/* pixels */
"z.z.z.z.z.z.z.z.z.z.z.z.z.z.z.z.z.z.z.z.z.z.z.z.z.z.z.z.z.z.z.z.",
"z.z.z.z.z.z.z.z.z.z.z.z.z.z.z.z.z.z.z.z.z.z.z.z.z.z.z.z.z.z.z.z.",
"z.z.z.z.z.z.z.z.z.z.z.z.z.z.z.z.z.z.z.z.z.z.z.z.z.z.z.z.z.z.z.z.",
"z.z.z.z.z.z.z.z.z.z.z.z.z.z.l.k.h.k.z.z.z.z.z.z.z.z.z.z.z.z.z.z.",
"z.z.z.z.z.z.z.z.z.z.z.d.2.g f f 9 +.k.z.z.z.z.z.z.z.z.z.z.z.z.z.",
"z.z.z.z.z.z.z.z.z.z.l.a g #.t.5.t.9 p @.s.z.z.z.z.z.z.z.z.z.z.z.",
"z.z.z.z.z.z.z.z.z.k.<.#.y.y.k.z.j.*.*.#.7 5.z.z.z.z.z.z.z.z.z.z.",
"z.z.z.z.z.z.z.z.z.#.#.d.2.9.j.z.j.i.9.k.u.9 t.z.z.z.z.z.z.z.z.z.",
"z.z.z.z.z.z.z.z.y.f k.z.l.z.z.z.z.z.z.z.z.8.a k.z.z.z.z.z.z.z.z.",
"z.z.z.z.z.z.z.z.$.<.z.z.z.z.z.z.z.z.z.z.z.k.i i.z.z.z.z.z.z.z.z.",
"z.z.z.z.z.z.z.z.g 5.z.z.z.z.z.l.z.z.z.z.z.z.f 9.z.z.z.z.z.z.z.z.",
"z.z.z.z.z.z.z.z.+.<.z.z.z.z.i.z.z.p.j.z.z.l.a t.z.z.z.z.z.z.z.z.",
"z.z.z.z.z.z.j.k.<.a z.z.z.j.@.u.d.&.d.z.z.h.f j.z.z.z.z.z.z.z.z.",
"z.z.z.z.z.5.a f 5.i d.j.,. .[ L { | 6.h.z.j.+.j.z.z.z.z.z.z.z.z.",
"z.z.z.z.k.f i.d.f 2 i.w.^ ) ` ] ] _ ! { e.z.i u.z.z.z.z.z.z.z.z.",
"z.z.z.z.j.+.k.k.I . 2.f.X.} ^ ' ] ) ( ! r.h.a j.z.z.z.z.z.z.z.z.",
"z.z.z.z.z.g i.q.C b & <.g.g.e...[ -.4.y.s.9 f y.k.z.z.z.z.z.z.z.",
"z.z.z.z.z.5.+.R N % h l z U =.>.:.1.;.T = @ *.+.f d.z.z.z.z.z.z.",
"z.z.z.z.z.k.i k % % A S Z B M m M m m N j Y z.z.<.g z.z.z.z.z.z.",
"z.z.z.z.z.z.i.* # V S A A S S S S S S S B 0 h.z.h.a k.z.z.z.z.z.",
"z.z.z.z.z.z.z.%.$ B A S S S S S S S S S S c s i.*.g z.z.z.z.z.z.",
"z.z.z.z.z.z.z.2.o q k l c n m m b m m n v x = O a d.z.z.z.z.z.z.",
"z.z.z.z.z.z.z.t.3 g.s.8.1.1.:.;.;.>.3.4.0.p.p.1 i.z.z.z.z.z.z.z.",
"z.z.z.z.z.z.z.k.i g k.z.z.z.z.z.z.z.z.z.z.z.9.7 j.z.z.z.z.z.z.z.",
"z.z.z.z.z.z.z.z.h.3 y 5.j.z.z.z.z.z.z.z.j.7.9 9.z.z.z.z.z.z.z.z.",
"z.z.z.z.z.z.z.k.j.d H ; $.f $.2.2.*.*.%.6 X f j.k.z.z.z.z.z.z.z.",
"z.z.z.z.z.z.<.8 r L ) ~ [ 4 u #.%.a 8 t E / P , w &.k.z.z.z.z.z.",
"z.z.z.z.z.i.  J ` o.O.O.] Q + i.j.5 W ` O.O.] ` Q X t.z.z.z.z.z.",
"z.z.z.z.z.j.8 - > F F < < , p h.j.e > D K K G : - 8 h.z.z.z.z.z.",
"z.z.z.z.z.z.k.i.t.7.5.5.0.i.k.z.z.j.9.2.*.*.*.<.9.k.z.z.z.z.z.z.",
"z.z.z.z.z.z.z.z.z.z.z.z.z.z.z.z.z.z.z.z.z.z.z.z.z.z.z.z.z.z.z.z.",
"z.z.z.z.z.z.z.z.z.z.z.z.z.z.z.z.z.z.z.z.z.z.z.z.z.z.z.z.z.z.z.z."
};
