/* XPM */
static char *b0a85bf943be4edeabb010ae5f749349bhIn8UC0BEiTMNfU[] = {
/* columns rows colors chars-per-pixel */
"32 32 96 2 ",
"   c #C3C4C8",
".  c #CCC4CB",
"X  c #C1CCCE",
"o  c #D3CACE",
"O  c #C5C9D0",
"+  c #C0C5D8",
"@  c #CDCCDD",
"#  c #D5CCD3",
"$  c #D3CEDC",
"%  c #C3D1D3",
"&  c #CAD6D7",
"*  c #CFD9DB",
"=  c #D3D5D3",
"-  c #D6DAD3",
";  c #DCD5D9",
":  c #DCDCDD",
">  c #F5CDCC",
",  c #E9D7C7",
"<  c #E3D2CC",
"1  c #ECDBC8",
"2  c #F7DACD",
"3  c #E2D2DA",
"4  c #ECD3DB",
"5  c #E4DADE",
"6  c #EAD9DC",
"7  c #F7D4D3",
"8  c #F6DAD4",
"9  c #F8DBD5",
"0  c #F6DADB",
"q  c #F8DCDC",
"w  c #DDE2DA",
"e  c #F9E1CA",
"r  c #FBEBCA",
"t  c #FCF5CC",
"y  c #EDECD3",
"u  c #E5E3DD",
"i  c #F9E1DE",
"p  c #EEF4DC",
"a  c #F1F5D4",
"s  c #CECAE1",
"d  c #D4CBE2",
"f  c #D9CBE1",
"g  c #CAD4E4",
"h  c #CDDDE5",
"j  c #CDDBE9",
"k  c #D4D4E4",
"l  c #D5DAE4",
"z  c #DADBE3",
"x  c #D4DEE9",
"c  c #D8DDEA",
"v  c #E3D4E3",
"b  c #E5DCE2",
"n  c #EBDDE3",
"m  c #ECDFEA",
"M  c #F5DCE2",
"N  c #F8DDE2",
"B  c #DAE2E5",
"V  c #D3E4E9",
"C  c #D4E8EC",
"Z  c #E7E6E6",
"A  c #EDE4E5",
"S  c #E4E6E9",
"D  c #E4EDEB",
"F  c #EBE9E9",
"G  c #F2E3E3",
"H  c #F9E2E4",
"J  c #F5E5E9",
"K  c #F9E6EA",
"L  c #F1E9E9",
"P  c #F7EAEB",
"I  c #F7EAEC",
"U  c #F4EDEE",
"Y  c #F8E9EA",
"T  c #FBEAEB",
"R  c #FBEBEB",
"E  c #FAE9EF",
"W  c #FBEDEF",
"Q  c #FCECED",
"!  c #FCEDEE",
"~  c #EAF0E6",
"^  c #FBE9F0",
"/  c #FBEEF0",
"(  c #FCEFF0",
")  c #FCEFF1",
"_  c #FBF1F1",
"`  c #FBF2F3",
"'  c #FCF3F3",
"]  c #FCF3F4",
"[  c #FCF4F4",
"{  c #FCF5F5",
"}  c #FCF6F6",
"|  c #FDF7F8",
" . c #FDF9F8",
".. c #FEFBFB",
"X. c #FEFCFB",
"o. c white",
/* pixels */
"o.o.o.o.o.o.o.o.o.o.o.o.o.o.o.o.o.o.o.o.o.o.o.o.o.o.o.o.o.o.o.o.",
"o.o.o.o.o.o.o.o.o.o.o.o.o.o.o.o...o.o.o.o.o.o.o.o.o.o.o.o.o.o.o.",
"o.o.o.o.o.o.o.o.o.o.o.o.o...o.o...o...o.o.o.o.o.o.o.o.o.o.o.o.o.",
"o.o.o.o.o.o.o.o.o.o...o.............o.....o...o.o.o.o.o.o.o.o.o.",
"o.o.o.o.o.o.o.o.o.o...X.......................o...o.o.o.o.o.o.o.",
"o.o.o.o.o.o...o.X.X...{ { ..{ { { { ..{ { ......o.o...o.o.o.o.o.",
"o.o.o.o.o.o.......| ] ..{ { ] ] { { { { { ..| ......o.o.o.o.o.o.",
"o.o.o.o...o.X...| ..{ ' ' ' ) ] ' / ' ' { { { ..........o.o.o.o.",
"o.o.o.o.o.....| { [ [ ( ] ) ) ! ! ! ) K ' { { { { ......o.o.o.o.",
"o.o.o.......| { { [ W P J K K T T T J A A P ' ' { | ......o.o.o.",
"o.o.o.......{ ' { F : * O . ; M G : & X . o 5 ' ] { ......o.o.o.",
"o.o.o.......{ ' F - w u 6 4 3 #   % B 5 0 J b Z ' { { ......o.o.",
"o.o.X.....{ ' W - - ; u i q K K 5 b q H N K ) D U ' ' ......o.o.",
"o.........{ ' A X = ; z 0 9 N N ^ T i q N N M ~ F ' { ......o.o.",
"o.o.....| { [ m + g z b M M 0 0 q H q q 8 7 2 p Z W ] { ......o.",
"o.......[ { ' A $ s j x A M N M 7 7 8 q 7 > r a A ' ' { ......o.",
"o.......{ { ' J f k l j x n H H 7 > 7 0 > 2 t y i ( { { X.X.o.o.",
"o.o.....{ { / W v d k x V B A ' 0 > > > > 2 t 5 U ( [ [  .X.o.X.",
"o...X...X.{ ' T L f k l z z A H N > > 7 2 r 1 A R ( [ [ ......o.",
"o.o.....| { ' W T n d g x z b i H 9 9 9 2 1 ; Y [ ( [  . .....o.",
"o.o..... .{ ' W ^ P v s g j B n 9 7 7 2 , o G W W [ { [ ....o.o.",
"o...o.....' { ' ^ T P v @ h V S M 0 8 < . n T W W { {  ...X.o.o.",
"o.o.o.......{ ' ' W T T n $ l V : 5 : # n R ! ' [ {  .....o.X.o.",
"o.o.o.......{ ] ' W ! Q T J b z z : b L R ! ! ' { {  ...X.X.o.o.",
"o.o...o.....| [ { ' ' W W R T T P P T W W W ' '  .......o...o.o.",
"o.o.o.o.o...X.X.{ { ' / ' W W W W W W / ' ' ' { { ....o.o.o.o.o.",
"o.o.o.o.o.o.X.....{ { { ' { ' ' ' ' ] { { { { ..........o.o.o.o.",
"o.o.o.o.X.X.o.........{ { { { { ' ' { { {  .....X.o.o.o.o.o.o.o.",
"o.o.o.o.o.o.o.o.o.........| ..{ { ..| | ........o...o.o.o.o.o.o.",
"o.o.o.o.o.o.o.o...o.............X...X.X...o...o.o.o.o.o.o.o.o.o.",
"o.o.o.o.o.o.o.o.o...o.....X.........X.o.....o...o.o.o.o.o.o.o.o.",
"o.o.o.o.o.o.o.o.o.o.o.o.o.o.o...o.o...o.o.o.o.o.o.o.o.o.o.o.o.o."
};
